<svg width="12" height="11" viewBox="0 0 12 11" fill="none" xmlns="http://www.w3.org/2000/svg">
<path d="M5.79999 10.9C8.83755 10.9 11.3 8.48231 11.3 5.49998C11.3 2.51764 8.83755 0.0999756 5.79999 0.0999756C2.76242 0.0999756 0.299988 2.51764 0.299988 5.49998C0.299988 8.48231 2.76242 10.9 5.79999 10.9Z" fill="white"/>
<path d="M5.72943 0.0402832C2.6134 0.0402832 0.078125 2.49864 0.078125 5.52014C0.078125 8.54165 2.6134 11 5.72943 11C8.84547 11 11.3807 8.54165 11.3807 5.52014C11.3807 2.49864 8.84547 0.0402832 5.72943 0.0402832ZM7.18074 10.0888L7.64727 9.51053L5.78174 8.96488L3.91681 9.51228L4.4128 10.1261C3.31921 9.83174 2.37833 9.18116 1.73023 8.31079L2.39456 8.54223L2.35608 6.6645L1.24025 5.12431L0.804979 5.74342C0.801372 5.66938 0.798968 5.59535 0.798968 5.52073C0.798968 4.19215 1.36109 2.98891 2.2665 2.12205L1.94967 2.43801L1.88534 3.29905L3.72683 2.68402L4.90218 1.18522L4.17893 0.984102C4.66771 0.826119 5.18835 0.73984 5.72943 0.73984C6.30539 0.73984 6.85789 0.837195 7.37192 1.01383L6.56751 1.23769L7.74346 2.73533L9.58615 3.34919L9.55789 2.51322C10.2463 3.3352 10.6593 4.38162 10.6593 5.52014C10.6593 5.65481 10.6521 5.78772 10.6407 5.92006L10.0677 5.10566L8.95308 6.64643L8.91641 8.52474L9.89337 8.04379L10.0815 7.76164C9.47493 8.86577 8.43365 9.7134 7.18074 10.0888Z" fill="#4D5A64"/>
<path d="M4.66517 3.92861L3.95215 6.03893L5.81708 7.34185L7.68261 6.03543L6.96958 3.92511L4.66517 3.92861Z" fill="#4D5A64"/>
</svg>
