<svg width="37" height="42" viewBox="0 0 37 42" fill="none" xmlns="http://www.w3.org/2000/svg">
<mask id="mask0" mask-type="alpha" maskUnits="userSpaceOnUse" x="0" y="0" width="37" height="42">
<path d="M32.7634 3.82767C32.7634 3.82767 34.0174 4.37561 35.0098 7.73198C36.0022 11.0884 36.6151 14.1237 36.6151 14.1237C36.6151 14.1237 33.0291 16.2319 30.1086 15.9074C30.1083 15.9074 30.1083 7.28133 32.7634 3.82767Z" fill="#2F2A2B"/>
<path d="M4.85092 3.82767C4.85092 3.82767 3.59692 4.37561 2.60452 7.73198C1.61211 11.0884 0.999206 14.1237 0.999206 14.1237C0.999206 14.1237 4.5852 16.2319 7.5057 15.9074C7.5057 15.9074 7.5057 7.28133 4.85092 3.82767Z" fill="#2F2A2B"/>
<path d="M7.5057 15.9074C4.5852 16.2319 0.999206 14.1237 0.999206 14.1237C0.999206 14.1237 0.673998 15.2687 0.731404 15.3835C0.788811 15.498 2.99431 17.3316 7.52047 17.2456L7.5057 15.9074Z" fill="#2F2A2B"/>
<path d="M30.1086 15.9074C33.0291 16.2319 36.6151 14.1237 36.6151 14.1237C36.6151 14.1237 36.94 15.2687 36.8826 15.3835C36.8252 15.498 34.6197 17.3316 30.0935 17.2456L30.1086 15.9074Z" fill="#2F2A2B"/>
<path d="M32.7634 3.82767C27.5154 2.40695 24.8227 1.37537 18.8071 1.37537C12.7915 1.37537 10.099 2.40695 4.85092 3.82767C8.70092 8.77767 7.72118 32.0839 5.53837 39.0277C5.53837 40.9296 12.1727 41.8808 18.8071 41.8808C25.4415 41.8808 32.0759 40.9296 32.0759 39.0277C29.8931 32.0839 28.9134 8.77767 32.7634 3.82767Z" fill="#2F2A2B"/>
<path d="M18.8071 1.37537C22.3508 1.37537 25.2239 1.68336 25.2239 2.85418C25.2239 4.02499 22.3512 5.61587 18.8072 5.61587C15.2631 5.61587 12.3904 4.02533 12.3904 2.85418C12.3904 1.68302 15.2631 1.37537 18.8071 1.37537ZM18.8072 0.344116C15.2036 0.344116 11.3591 0.537989 11.3591 2.85418C11.3591 4.83933 14.909 6.64712 18.8072 6.64712C22.7053 6.64712 26.2552 4.83933 26.2552 2.85418C26.2548 0.537989 22.4107 0.344116 18.8072 0.344116Z" fill="#2F2A2B"/>
</mask>
<g mask="url(#mask0)">
<path d="M32.7634 3.82764C32.7634 3.82764 34.0174 4.37557 35.0098 7.73195C36.0022 11.0883 36.6152 14.1236 36.6152 14.1236C36.6152 14.1236 33.0292 16.2319 30.1087 15.9074C30.1083 15.9074 30.1083 7.28129 32.7634 3.82764Z" fill="#EBECEC"/>
<path d="M4.85098 3.82764C4.85098 3.82764 3.59699 4.37557 2.60458 7.73195C1.61217 11.0883 0.999268 14.1236 0.999268 14.1236C0.999268 14.1236 4.58526 16.2319 7.50576 15.9074C7.50576 15.9074 7.50576 7.28129 4.85098 3.82764Z" fill="#EBECEC"/>
<path d="M7.50569 15.9074C4.58519 16.2319 0.999188 14.1237 0.999188 14.1237C0.999188 14.1237 0.673998 15.2687 0.731405 15.3835C0.788811 15.498 2.99431 17.3315 7.52047 17.2456L7.50569 15.9074Z" fill="#EBECEC"/>
<path d="M30.1083 15.9074C33.0288 16.2319 36.6148 14.1237 36.6148 14.1237C36.6148 14.1237 36.94 15.2687 36.8826 15.3835C36.8252 15.498 34.6197 17.3315 30.0935 17.2456L30.1083 15.9074Z" fill="#EBECEC"/>
<path d="M32.7636 3.82768C27.5155 2.40696 24.823 1.37537 18.8073 1.37537C12.7917 1.37537 10.0991 2.40696 4.85107 3.82768C8.70107 8.77768 7.72139 32.0839 5.53857 39.0277C5.53857 40.9296 12.173 41.8808 18.8073 41.8808C25.4417 41.8808 32.0761 40.9296 32.0761 39.0277C29.8933 32.0839 28.9136 8.77768 32.7636 3.82768Z" fill="#EBECEC"/>
<path d="M30.5747 2.98376L18.8071 9.25308L7.97144 3.54133" stroke="white" stroke-width="2" stroke-miterlimit="10"/>
<path d="M35.9592 4.44159L18.8071 13.9796L1.85889 4.64543" stroke="white" stroke-width="3" stroke-miterlimit="10"/>
<path d="M35.9592 8.7677L18.8071 18.7062L1.85889 8.97189" stroke="white" stroke-width="4" stroke-miterlimit="10"/>
<path d="M35.9592 13.0941L18.8071 23.4327L1.85889 13.2983" stroke="white" stroke-width="5" stroke-miterlimit="10"/>
<path d="M35.9592 17.4206L18.8071 28.1593L1.85889 17.6244" stroke="white" stroke-width="6" stroke-miterlimit="10"/>
<path d="M35.9592 21.747L18.8071 32.8859L1.85889 21.9509" stroke="white" stroke-width="7" stroke-miterlimit="10"/>
<path d="M35.9592 26.0731L18.8071 37.6125L1.85889 26.2773" stroke="white" stroke-width="8" stroke-miterlimit="10"/>
<path d="M15.8752 42.1905H21.7279L33.3367 34.11V31.4194H31.786L18.8047 40.4559L5.7542 31.4194H4.4043V34.2475L15.8752 42.1905Z" fill="white"/>
<path d="M4.4043 38.8669L9.04595 42.1906H14.9505L4.4043 34.6387V38.8669Z" fill="white"/>
<path d="M28.5262 42.1905L33.3366 38.7297V34.4954L22.6401 42.1905H28.5262Z" fill="white"/>
<path d="M30.6651 12.585C30.6651 -2.89951 7.01713 -2.89951 7.01713 12.585C3.80994 12.585 5.09144 17.3976 1.88459 17.3976C1.88459 3.35502 -0.858873 0.115173 18.8411 0.115173C39.341 0.115173 35.7976 3.35502 35.7976 17.3976C32.5908 17.3976 33.8723 12.585 30.6651 12.585Z" fill="#EBECEC"/>
<path opacity="0.2" d="M18.8071 41.8808C25.4415 41.8808 32.0759 40.9297 32.0759 39.0277C29.8931 32.084 28.9134 8.7777 32.7634 3.8277C29.6466 5.18207 28.5353 9.73676 28.5885 11.9625C28.6422 14.2127 25.2672 15.7668 25.2672 15.7668C25.2672 15.7668 26.6601 16.1965 26.9812 16.5114C27.3029 16.8263 26.1819 23.3462 26.0211 24.0962C25.8602 24.8463 27.3565 28.1511 27.3029 29.062C27.2493 29.9726 22.6956 26.554 22.6956 26.554C22.6956 26.554 26.8743 32.5741 27.3565 33.4851C27.8388 34.396 28.2671 35.5074 27.142 37.8648C26.0678 40.115 18.8071 41.8808 18.8071 41.8808Z" fill="#010101"/>
<path opacity="0.2" d="M8.33484 33.8536C8.88106 31.7832 8.22828 27.1632 8.22828 27.1632C8.22828 27.1632 9.3434 32.3672 12.6884 33.3758C12.6884 33.3758 8.06877 26.3667 8.12205 15.322C8.12205 15.322 9.58815 15.7104 7.65765 10.6625C7.29018 9.7017 6.69721 7.45598 6.0874 5.98748C5.47758 4.51898 4.85059 3.8277 4.85059 3.8277C8.70059 8.7777 7.7209 32.084 5.53809 39.0277C5.53809 40.557 9.82637 41.4714 14.9555 41.7712C14.9555 41.7712 7.06227 41.2507 8.33484 33.8536Z" fill="#010101"/>
<path d="M18.8072 1.37537C22.3509 1.37537 25.2239 1.68336 25.2239 2.85418C25.2239 4.02499 22.3512 5.61587 18.8072 5.61587C15.2631 5.61587 12.3904 4.02533 12.3904 2.85418C12.3904 1.68302 15.2631 1.37537 18.8072 1.37537ZM18.8072 0.344116C15.2036 0.344116 11.3591 0.537989 11.3591 2.85418C11.3591 4.83933 14.909 6.64712 18.8072 6.64712C22.7053 6.64712 26.2552 4.83933 26.2552 2.85418C26.2548 0.537989 22.4107 0.344116 18.8072 0.344116Z" fill="#2F2A2B"/>
<path d="M25.2237 2.85381C25.2237 4.02462 22.351 5.6155 18.8069 5.6155C15.2629 5.6155 12.3901 4.02497 12.3901 2.85381C12.3901 1.68265 15.2629 1.375 18.8069 1.375C22.351 1.375 25.2237 1.683 25.2237 2.85381Z" fill="#9E9D9D"/>
<path d="M23.5474 11.318L23.5652 12.8253C23.6419 13.7146 24.3569 15.0996 25.2283 15.0996C26.0997 15.0996 26.8144 13.715 26.8914 12.8253L26.8989 11.318H23.5474Z" fill="#2F2A2B"/>
<path d="M27.285 13.2041L23.4395 14.4155V13.585L27.285 12.3716V13.2041Z" fill="#2F2A2B"/>
</g>
</svg>
